<?xml version="1.0" encoding="UTF-8"?>
<svg version="1.1" xmlns="http://www.w3.org/2000/svg" width="376" height="353">
<path d="M0 0 C2.33944736 0.28730055 4.6739143 0.61936779 7 1 C8.76589479 7.00354955 6.88515066 11.30339936 4.80078125 16.92578125 C4.45411911 17.89437576 4.10745697 18.86297028 3.75028992 19.86091614 C2.6173627 23.01630461 1.46503771 26.16422781 0.3125 29.3125 C-0.46936574 31.4805006 -1.24995824 33.64896079 -2.02929688 35.81787109 C-4.33411179 42.21880043 -6.66297638 48.61076915 -9 55 C-9.33453186 55.91477112 -9.66906372 56.82954224 -10.01373291 57.77203369 C-10.63863239 59.48014007 -11.26374958 61.18816683 -11.88911438 62.89610291 C-12.4664862 64.47307578 -13.04347511 66.05018891 -13.62004089 67.62745667 C-14.90659455 71.14608439 -16.19872866 74.6623287 -17.5065918 78.1730957 C-17.9581665 79.39730225 -18.40974121 80.62150879 -18.875 81.8828125 C-19.26429688 82.92840332 -19.65359375 83.97399414 -20.0546875 85.05126953 C-21.01028002 88.03206665 -21.51650404 90.91239238 -22 94 C-21.09211227 94.00808685 -20.18422455 94.01617371 -19.24882507 94.02450562 C-10.69955645 94.10239429 -2.15044654 94.18966757 6.39861774 94.28752708 C10.79395189 94.33750739 15.18926179 94.38383721 19.5847168 94.421875 C23.82529656 94.45870599 28.06567439 94.50505985 32.30608177 94.55806351 C33.92518769 94.57661912 35.54433692 94.59172277 37.16350746 94.60334396 C39.42863338 94.62018665 41.69329564 94.64921615 43.95825195 94.68115234 C45.89351494 94.70113785 45.89351494 94.70113785 47.86787415 94.7215271 C51 95 51 95 54 97 C54.58062681 100.3294684 54.78704498 102.76367023 52.91455078 105.70507812 C51.37030813 107.4767998 49.75109044 109.11533289 48.0625 110.75 C46.8515707 111.98313321 45.64324805 113.21883137 44.4375 114.45703125 C43.84453125 115.0598291 43.2515625 115.66262695 42.640625 116.28369141 C40.46706876 118.55751587 38.51057102 120.96920547 36.5625 123.4375 C31.75838252 129.44042683 26.49228005 134.97194206 21.22265625 140.5625 C18.32682346 143.63772066 15.52478404 146.77879526 12.76953125 149.98046875 C10.39115503 152.6948628 7.94487646 155.34569125 5.5 158 C1.85507756 161.95925633 -1.74260497 165.95128193 -5.265625 170.01953125 C-7.27264538 172.31133155 -9.32402851 174.55996752 -11.375 176.8125 C-14.42858867 180.18940982 -17.34429205 183.63217132 -20.1875 187.1875 C-24.49041092 192.51527237 -29.12689078 197.46484742 -33.83105469 202.43432617 C-37.35929829 206.18152786 -40.71344775 209.98784609 -43.9375 214 C-53.4049723 225.72914624 -53.4049723 225.72914624 -58.3125 226.5625 C-61 226 -61 226 -63 224 C-64.01561289 216.92000633 -61.0070375 210.82424031 -58.5 204.3125 C-58.01693469 203.0317681 -57.53528767 201.75050051 -57.05493164 200.46875 C-56.26627143 198.36435961 -55.47684349 196.26029446 -54.68360901 194.15762329 C-51.21616546 184.95784883 -47.87044329 175.71366436 -44.51660156 166.47201538 C-43.44907203 163.53187119 -42.37913109 160.59261464 -41.30859375 157.65356445 C-40.64186829 155.82114769 -39.97519907 153.98871047 -39.30859375 152.15625 C-39.003806 151.31990524 -38.69901825 150.48356049 -38.38499451 149.62187195 C-37.82820696 148.08915457 -37.27562908 146.55489817 -36.72824097 145.01879883 C-36.08986724 143.24912617 -35.413328 141.49331708 -34.73071289 139.74023438 C-33.91880272 136.69550341 -34.29239575 135.01981854 -35 132 C-35.88061096 131.99635437 -36.76122192 131.99270874 -37.66851807 131.98895264 C-45.96740336 131.95108629 -54.26589513 131.89424921 -62.56450272 131.81609726 C-66.83094064 131.77658747 -71.0971711 131.74441637 -75.36376953 131.72900391 C-79.48131052 131.71386008 -83.59828126 131.67945588 -87.71556854 131.63169098 C-89.28638503 131.61685353 -90.85728292 131.60895763 -92.42816925 131.60811615 C-94.62883804 131.60575167 -96.82792419 131.57871822 -99.02832031 131.54589844 C-100.28074524 131.53701599 -101.53317017 131.52813354 -102.82354736 131.51898193 C-106.55964262 130.90856328 -107.77310809 130.013208 -110 127 C-110.25 124.25 -110.25 124.25 -109 121 C-107.20959533 118.94284311 -105.2837844 117.11006097 -103.29296875 115.24609375 C-100.91562356 112.91734846 -98.88185949 110.47986842 -96.8125 107.875 C-92.14148191 102.05444193 -87.09568395 96.64789136 -81.99609375 91.20703125 C-77.66328712 86.58350383 -73.52816871 81.81047163 -69.44140625 76.96875 C-63.26941254 69.67858067 -56.92221102 62.60495504 -50.33984375 55.68164062 C-46.65159934 51.79695711 -43.07210208 47.8403603 -39.56079102 43.79492188 C-37.69463452 41.6488273 -35.78880724 39.54113832 -33.875 37.4375 C-30.69567865 33.91983871 -27.57837055 30.35710284 -24.49169922 26.75854492 C-16.62264941 17.59066221 -8.54658457 8.54658457 0 0 Z " fill="#1F262D" transform="translate(216,74)"/>
<path d="M0 0 C4.71862941 1.5080701 7.30685665 4.39874906 10.72393799 7.89179993 C11.44336578 8.607285 12.16279358 9.32277008 12.90402222 10.05993652 C15.27655983 12.42576678 17.63068247 14.80904667 19.98468018 17.1933136 C21.62946311 18.84234692 23.27520858 20.4904207 24.921875 22.13757324 C28.36916092 25.5910247 31.80801581 29.05258263 35.24053955 32.52070618 C39.64268909 36.96814532 44.05996779 41.40016138 48.48295975 45.82686329 C51.88090836 49.22923877 55.27338917 52.63702025 58.66396332 56.04674339 C60.2912202 57.68288492 61.91955829 59.31795182 63.54898834 60.95192909 C65.82343003 63.23540509 68.09106325 65.52542287 70.35675049 67.81758118 C71.03208832 68.49358368 71.70742615 69.16958618 72.40322876 69.86607361 C73.01995453 70.49277451 73.6366803 71.1194754 74.27209473 71.76516724 C74.80815968 72.30588269 75.34422462 72.84659815 75.89653397 73.40369892 C78.38491135 76.35931315 79.34951409 78.21628569 79.03155518 82.11128235 C78.28155518 85.04878235 78.28155518 85.04878235 76.28155518 88.04878235 C75.62155518 88.04878235 74.96155518 88.04878235 74.28155518 88.04878235 C74.28155518 88.70878235 74.28155518 89.36878235 74.28155518 90.04878235 C72.40655518 92.17378235 72.40655518 92.17378235 70.28155518 94.04878235 C69.62155518 94.04878235 68.96155518 94.04878235 68.28155518 94.04878235 C68.07296875 94.58235855 67.86438232 95.11593475 67.6494751 95.66567993 C65.73771032 98.996234 63.10263772 101.49734286 60.39483643 104.17842102 C59.79303558 104.78212021 59.19123474 105.3858194 58.57119751 106.0078125 C56.58366763 107.99904272 54.58903658 109.98298867 52.59405518 111.9667511 C51.21128503 113.34832908 49.8288844 114.73027699 48.44683838 116.11257935 C45.5514031 119.00645112 42.65264014 121.89693326 39.75128174 124.78486633 C36.02687586 128.49225882 32.30911055 132.20622394 28.59358215 135.9225111 C25.74065497 138.77516681 22.88513238 141.62521217 20.02871704 144.47437477 C18.65654412 145.8433595 17.28498133 147.21295606 15.91403198 148.58316612 C14.0012837 150.4937538 12.08528345 152.40101645 10.16827393 154.30732727 C9.31415421 155.16212677 9.31415421 155.16212677 8.44277954 156.03419495 C3.52629033 160.91047844 3.52629033 160.91047844 -0.53094482 161.36128235 C-4.44171778 160.97787323 -5.97275232 159.79447485 -8.71844482 157.04878235 C-8.71844482 156.38878235 -8.71844482 155.72878235 -8.71844482 155.04878235 C-9.61563232 154.67753235 -9.61563232 154.67753235 -10.53094482 154.29878235 C-13.14087245 152.80739513 -14.31201969 151.71358787 -15.71844482 149.04878235 C-15.96088324 143.71513713 -13.35295983 141.21876841 -10.00894165 137.49385071 C-5.20109501 132.36155209 -0.20584174 127.41560194 4.77764893 122.45503235 C5.9785572 121.25599281 7.17924218 120.05672958 8.37971497 118.85725403 C11.51577803 115.72498027 14.65483407 112.59572325 17.79455566 109.46711731 C21.00755519 106.26440965 24.21766989 103.05881327 27.42803955 99.85346985 C33.70974888 93.58243446 39.99462875 87.31458711 46.28155518 81.04878235 C45.34881409 79.91983359 44.41015395 78.79577359 43.46905518 77.67378235 C42.94698486 77.04729797 42.42491455 76.4208136 41.88702393 75.77534485 C40.19929779 73.82667755 40.19929779 73.82667755 37.28155518 72.04878235 C37.28155518 71.38878235 37.28155518 70.72878235 37.28155518 70.04878235 C35.96155518 69.38878235 34.64155518 68.72878235 33.28155518 68.04878235 C33.28155518 67.38878235 33.28155518 66.72878235 33.28155518 66.04878235 C32.62155518 66.04878235 31.96155518 66.04878235 31.28155518 66.04878235 C29.87771606 64.61875916 29.87771606 64.61875916 28.23028564 62.61763 C24.11354722 57.77947662 19.64897531 53.37784896 15.10186768 48.94721985 C13.35127872 47.22385957 11.60129616 45.49988313 9.85186768 43.77534485 C7.11877102 41.08564634 4.3821357 38.39999961 1.6350708 35.7245636 C-1.03329722 33.12266738 -3.68557378 30.50524479 -6.33563232 27.88471985 C-7.57456741 26.68919998 -7.57456741 26.68919998 -8.83853149 25.4695282 C-9.59667145 24.71499359 -10.3548114 23.96045898 -11.13592529 23.18305969 C-11.80542206 22.52768219 -12.47491882 21.87230469 -13.16470337 21.19706726 C-15.13020077 18.47946686 -15.48797608 16.36900455 -15.71844482 13.04878235 C-13.93492972 9.89771573 -11.31089299 7.55893057 -8.71844482 5.04878235 C-8.19250732 4.50221985 -7.66656982 3.95565735 -7.12469482 3.39253235 C-4.76894608 1.13702823 -3.30176195 0.05924994 0 0 Z " fill="#1F262D" transform="translate(279.71844482421875,105.95121765136719)"/>
<path d="M0 0 C2.1328125 1.5234375 2.1328125 1.5234375 4.125 3.375 C4.78757812 3.98085937 5.45015625 4.58671875 6.1328125 5.2109375 C6.74898438 5.80132812 7.36515625 6.39171875 8 7 C8.556875 7.52078125 9.11375 8.0415625 9.6875 8.578125 C11.61005776 10.6608959 11.86620797 12.19036741 12 15 C9.83817078 19.37192695 6.67713538 22.59556162 3.2434082 25.98364258 C2.66750946 26.55983337 2.09161072 27.13602417 1.4982605 27.72967529 C-0.39619472 29.6227432 -2.29762311 31.50863836 -4.19921875 33.39453125 C-5.51816197 34.70974221 -6.83666274 36.02539702 -8.15473938 37.34147644 C-11.61747188 40.79658922 -15.08616939 44.24565242 -18.55615234 47.69348145 C-22.09900673 51.21584166 -25.63617451 54.74390221 -29.17382812 58.27148438 C-36.11033821 65.18657385 -43.05316465 72.09528434 -50 79 C-48.1574934 82.16211368 -46.65292987 84.56747713 -43.75 86.8125 C-41.19174829 88.89237162 -39.02345757 91.03227012 -36.90771484 93.55761719 C-32.4438957 98.72823845 -27.59248804 103.47650835 -22.7265625 108.265625 C-21.75202784 109.23065119 -20.7779455 110.19613436 -19.80429077 111.16204834 C-15.70570159 115.22734113 -11.60267076 119.28807517 -7.48974609 123.33886719 C-4.95950677 125.83147623 -2.43662516 128.33133195 0.08168411 130.83599091 C1.50161905 132.24398996 2.92963355 133.64382583 4.35775757 135.04351807 C5.64512314 136.32570221 5.64512314 136.32570221 6.95849609 137.63378906 C8.09597794 138.75675385 8.09597794 138.75675385 9.25643921 139.90240479 C11.03283827 142.03950617 11.72279187 143.25784844 12 146 C9.82206511 151.22704374 5.35603186 155.49097434 1 159 C-2.5 160.4375 -2.5 160.4375 -6 160 C-13.85712478 154.61658655 -20.52620256 146.63773419 -27.25 139.91796875 C-28.51644823 138.65473845 -29.78296964 137.39158151 -31.04956055 136.12849426 C-33.68699216 133.49701584 -36.32238413 130.86351409 -38.95654297 128.22875977 C-42.33882535 124.84637498 -45.72798222 121.4709678 -49.11886597 118.09720898 C-51.72839461 115.49876013 -54.33340491 112.89581842 -56.93713379 110.29155922 C-58.18591169 109.04396376 -59.4363169 107.79799501 -60.68835449 106.55367088 C-62.42850354 104.82325754 -64.16227586 103.08669894 -65.89453125 101.34838867 C-66.41495499 100.83358444 -66.93537872 100.31878021 -67.47157288 99.78837585 C-71 96.22832799 -71 96.22832799 -71 94 C-71.99 93.67 -72.98 93.34 -74 93 C-75.75390625 91.22265625 -75.75390625 91.22265625 -77.5625 89.0625 C-79.33130568 86.96656037 -81.05994888 84.94005112 -83 83 C-83.5625 80.375 -83.5625 80.375 -83 77 C-78.02021356 69.84540776 -70.90475653 63.78705087 -64.73248291 57.65731812 C-62.83728107 55.77503824 -60.94535947 53.88951382 -59.05419922 52.00317383 C-54.35946322 47.32171095 -49.65926516 42.64574455 -44.95922852 37.96960449 C-40.9765437 34.00674472 -36.9959784 30.04177822 -33.01812744 26.07406616 C-31.16632966 24.22868641 -29.31151551 22.38637706 -27.45654297 20.54418945 C-22.24527871 15.35486468 -17.08925442 10.19157797 -12.375 4.53662109 C-8.67849583 0.40562017 -5.56716977 -1.72919667 0 0 Z " fill="#1F262C" transform="translate(101,107)"/>
<path d="M0 0 C2.33944736 0.28730055 4.6739143 0.61936779 7 1 C8.76589479 7.00354955 6.88515066 11.30339936 4.80078125 16.92578125 C4.45411911 17.89437576 4.10745697 18.86297028 3.75028992 19.86091614 C2.6173627 23.01630461 1.46503771 26.16422781 0.3125 29.3125 C-0.46936574 31.4805006 -1.24995824 33.64896079 -2.02929688 35.81787109 C-4.33411179 42.21880043 -6.66297638 48.61076915 -9 55 C-9.33453186 55.91477112 -9.66906372 56.82954224 -10.01373291 57.77203369 C-10.63863239 59.48014007 -11.26374958 61.18816683 -11.88911438 62.89610291 C-12.4664862 64.47307578 -13.04347511 66.05018891 -13.62004089 67.62745667 C-14.90659455 71.14608439 -16.19872866 74.6623287 -17.5065918 78.1730957 C-17.9581665 79.39730225 -18.40974121 80.62150879 -18.875 81.8828125 C-19.26429688 82.92840332 -19.65359375 83.97399414 -20.0546875 85.05126953 C-21.01028002 88.03206665 -21.51650404 90.91239238 -22 94 C-21.09211227 94.00808685 -20.18422455 94.01617371 -19.24882507 94.02450562 C-10.69955645 94.10239429 -2.15044654 94.18966757 6.39861774 94.28752708 C10.79395189 94.33750739 15.18926179 94.38383721 19.5847168 94.421875 C23.82529656 94.45870599 28.06567439 94.50505985 32.30608177 94.55806351 C33.92518769 94.57661912 35.54433692 94.59172277 37.16350746 94.60334396 C39.42863338 94.62018665 41.69329564 94.64921615 43.95825195 94.68115234 C45.89351494 94.70113785 45.89351494 94.70113785 47.86787415 94.7215271 C51 95 51 95 54 97 C54.58062681 100.3294684 54.78704498 102.76367023 52.91455078 105.70507812 C51.37030813 107.4767998 49.75109044 109.11533289 48.0625 110.75 C46.8515707 111.98313321 45.64324805 113.21883137 44.4375 114.45703125 C43.84453125 115.0598291 43.2515625 115.66262695 42.640625 116.28369141 C40.46706876 118.55751587 38.51057102 120.96920547 36.5625 123.4375 C31.75838252 129.44042683 26.49228005 134.97194206 21.22265625 140.5625 C18.32682346 143.63772066 15.52478404 146.77879526 12.76953125 149.98046875 C10.39115503 152.6948628 7.94487646 155.34569125 5.5 158 C1.85507756 161.95925633 -1.74260497 165.95128193 -5.265625 170.01953125 C-7.27264538 172.31133155 -9.32402851 174.55996752 -11.375 176.8125 C-14.42858867 180.18940982 -17.34429205 183.63217132 -20.1875 187.1875 C-24.49041092 192.51527237 -29.12689078 197.46484742 -33.83105469 202.43432617 C-37.35929829 206.18152786 -40.71344775 209.98784609 -43.9375 214 C-53.4049723 225.72914624 -53.4049723 225.72914624 -58.3125 226.5625 C-61 226 -61 226 -63 224 C-62.625 221.875 -62.625 221.875 -62 220 C-61.67 221.32 -61.34 222.64 -61 224 C-59.02 224 -57.04 224 -55 224 C-54.75894531 223.45214844 -54.51789063 222.90429688 -54.26953125 222.33984375 C-52.70272804 219.45210492 -50.77838399 217.09615943 -48.6875 214.5625 C-47.92824219 213.63566406 -47.16898438 212.70882812 -46.38671875 211.75390625 C-44.03036973 209.035042 -41.55869836 206.52828293 -39 204 C-31.81275264 196.54535153 -24.86528776 188.97289808 -18.40625 180.875 C-14.8369481 176.61037955 -11.00057086 172.60891951 -7.17431641 168.57543945 C-2.79387203 163.9305447 1.24093423 159.1397179 5.1328125 154.07421875 C7 152 7 152 9.1171875 150.95703125 C11.5620611 149.71430504 11.80079696 148.42695194 13 146 C14.31274414 144.38427734 14.31274414 144.38427734 15.78515625 142.8359375 C16.31560547 142.27132812 16.84605469 141.70671875 17.39257812 141.125 C17.94365234 140.5475 18.49472656 139.97 19.0625 139.375 C22.96570729 135.50673691 22.96570729 135.50673691 26 131 C26.66 131 27.32 131 28 131 C28.268125 130.443125 28.53625 129.88625 28.8125 129.3125 C29.204375 128.549375 29.59625 127.78625 30 127 C30.45375 126.113125 30.9075 125.22625 31.375 124.3125 C33.27661753 121.60635197 33.93908109 121.69117524 37 121 C37.67941132 119.6731155 38.3437404 118.3384863 39 117 C40.06447839 115.67543495 41.17182773 114.38454499 42.3125 113.125 C42.92996094 112.43019531 43.54742187 111.73539062 44.18359375 111.01953125 C45.29564509 109.78312148 46.41185552 108.55041725 47.53515625 107.32421875 C50.28866674 104.21748826 51.35869719 102.05931036 52 98 C51.09433289 97.99635437 50.18866577 97.99270874 49.2555542 97.98895264 C40.72121665 97.95108885 32.18726188 97.89425461 23.65319443 97.81609726 C19.2656886 97.77658478 14.87838459 97.74441497 10.49072266 97.72900391 C6.25647976 97.7138619 2.02279159 97.67946081 -2.21120453 97.63169098 C-3.82667978 97.61685167 -5.44223422 97.60895752 -7.0577774 97.60811615 C-9.32069565 97.60575226 -11.58207361 97.57872295 -13.84472656 97.54589844 C-15.13268127 97.53701599 -16.42063599 97.52813354 -17.74761963 97.51898193 C-21 97 -21 97 -23.45013428 95.16485596 C-25 93 -25 93 -24.953125 89.81640625 C-23.84483628 85.37870919 -22.39465433 81.20042321 -20.75 76.9375 C-20.11671262 75.25668926 -19.48390419 73.575698 -18.8515625 71.89453125 C-18.53864258 71.06904785 -18.22572266 70.24356445 -17.90332031 69.39306641 C-16.61510319 65.98033553 -15.36404635 62.5559266 -14.125 59.125 C-13.73570312 58.05507812 -13.34640625 56.98515625 -12.9453125 55.8828125 C-12.0846968 53.25829024 -11.47142797 50.7182336 -11 48 C-10.34 48 -9.68 48 -9 48 C-8.7628125 46.76507813 -8.525625 45.53015625 -8.28125 44.2578125 C-6.94343521 38.24000125 -4.72977589 32.60972712 -2.5 26.875 C2.47211369 15.29787585 2.47211369 15.29787585 4 3 C-0.26428496 3.47380944 -2.11490093 6.03897727 -5 9 C-5.66 9 -6.32 9 -7 9 C-7.37125 9.804375 -7.37125 9.804375 -7.75 10.625 C-10.51211604 15.87302048 -13.81772531 19.84176137 -18 24 C-18.94846484 25.03131317 -19.88972079 26.06929564 -20.82421875 27.11328125 C-21.29537109 27.63857422 -21.76652344 28.16386719 -22.25195312 28.70507812 C-23.22389162 29.79338477 -24.19255319 30.88462532 -25.15820312 31.97851562 C-26.39885411 33.35606603 -27.69542842 34.68282386 -29 36 C-29.66 36 -30.32 36 -31 36 C-31.23332031 36.55171875 -31.46664062 37.1034375 -31.70703125 37.671875 C-33.34019284 40.61255267 -35.39339207 42.79077251 -37.6875 45.25 C-38.59432729 46.22993484 -39.5005746 47.21040671 -40.40625 48.19140625 C-41.2621875 49.11824219 -42.118125 50.04507813 -43 51 C-45.96694573 54.33781395 -48.88932733 57.71421047 -51.80859375 61.09375 C-54.30325164 63.96931265 -56.77269666 66.77837924 -59.5 69.4375 C-62.46985668 72.48160309 -64.93152583 75.78497857 -67.44921875 79.20703125 C-67.96097656 79.79871094 -68.47273438 80.39039063 -69 81 C-69.66 81 -70.32 81 -71 81 C-71.26425781 81.58136719 -71.52851563 82.16273438 -71.80078125 82.76171875 C-74.67807843 88.13204866 -79.41438874 92.47155529 -83.75 96.6875 C-86.38281053 99.26765432 -88.14828213 101.80157823 -90 105 C-91.6436814 106.68933922 -93.3142876 108.35259924 -95 110 C-96.83638751 112.12592593 -98.65039386 114.26798909 -100.44921875 116.42578125 C-100.96097656 116.94527344 -101.47273438 117.46476562 -102 118 C-102.66 118 -103.32 118 -104 118 C-105.64438905 120.95990029 -106.54561951 123.63758437 -107 127 C-105.92075998 128.30470954 -105.92075998 128.30470954 -103.33184814 128.11352539 C-102.14113708 128.10828857 -100.95042603 128.10305176 -99.72363281 128.09765625 C-99.06827545 128.09619598 -98.41291809 128.09473572 -97.73770142 128.0932312 C-96.30971784 128.08941624 -94.88173905 128.08329034 -93.4537735 128.07516479 C-91.1923783 128.06243953 -88.93104155 128.0558948 -86.6696167 128.05102539 C-81.04879764 128.0376266 -75.42803355 128.01349922 -69.80725098 127.98962402 C-65.06611187 127.96987423 -60.32499378 127.95423638 -55.58382416 127.94406128 C-53.35868079 127.93758888 -51.13362343 127.92507659 -48.9085083 127.91235352 C-47.53698806 127.9087189 -46.16546703 127.90536743 -44.79394531 127.90234375 C-43.00310516 127.89448853 -43.00310516 127.89448853 -41.17608643 127.88647461 C-38.29699761 127.98938418 -35.76603089 128.19925905 -33 129 C-30.74290186 133.51419628 -31.57258302 138.48235321 -32.89013672 143.16064453 C-34.16870312 146.82357855 -35.5341025 150.44625883 -36.9375 154.0625 C-37.44251347 155.39716383 -37.94607523 156.7323778 -38.44824219 158.06811523 C-39.7127373 161.42270183 -40.99286587 164.77104996 -42.27825928 168.11767578 C-44.12162373 172.92523262 -45.93509371 177.74414707 -47.75 182.5625 C-48.11287109 183.5213208 -48.47574219 184.4801416 -48.84960938 185.46801758 C-51.69825462 193.04911045 -54.30737335 200.69744381 -56.79394531 208.40454102 C-57.0565918 209.21463623 -57.31923828 210.02473145 -57.58984375 210.859375 C-57.81534912 211.56545898 -58.04085449 212.27154297 -58.27319336 212.99902344 C-59.03408843 215.09384911 -59.9667775 217.0270568 -61 219 C-61.66 219 -62.32 219 -63 219 C-61.0804712 212.3678061 -58.94477864 205.8608188 -56.55859375 199.3828125 C-56.23427368 198.4951268 -55.90995361 197.6074411 -55.57580566 196.69285583 C-54.8864829 194.80670537 -54.19597845 192.9209864 -53.50436401 191.03567505 C-52.42618067 188.09411799 -51.35308095 185.15075315 -50.28149414 182.20678711 C-47.3563872 174.17300078 -44.4287181 166.14040916 -41.45323181 158.12512207 C-40.71672881 156.13747537 -39.98531065 154.14804831 -39.25610352 152.15771484 C-38.39953993 149.82226671 -37.53336978 147.49031149 -36.65600586 145.16259766 C-36.28354736 144.14085449 -35.91108887 143.11911133 -35.52734375 142.06640625 C-35.20499756 141.19959229 -34.88265137 140.33277832 -34.55053711 139.43969727 C-33.91442414 136.62077181 -34.36532269 134.78797363 -35 132 C-35.88061096 131.99635437 -36.76122192 131.99270874 -37.66851807 131.98895264 C-45.96740336 131.95108629 -54.26589513 131.89424921 -62.56450272 131.81609726 C-66.83094064 131.77658747 -71.0971711 131.74441637 -75.36376953 131.72900391 C-79.48131052 131.71386008 -83.59828126 131.67945588 -87.71556854 131.63169098 C-89.28638503 131.61685353 -90.85728292 131.60895763 -92.42816925 131.60811615 C-94.62883804 131.60575167 -96.82792419 131.57871822 -99.02832031 131.54589844 C-100.28074524 131.53701599 -101.53317017 131.52813354 -102.82354736 131.51898193 C-106.55964262 130.90856328 -107.77310809 130.013208 -110 127 C-110.25 124.25 -110.25 124.25 -109 121 C-107.20959533 118.94284311 -105.2837844 117.11006097 -103.29296875 115.24609375 C-100.91562356 112.91734846 -98.88185949 110.47986842 -96.8125 107.875 C-92.14148191 102.05444193 -87.09568395 96.64789136 -81.99609375 91.20703125 C-77.66328712 86.58350383 -73.52816871 81.81047163 -69.44140625 76.96875 C-63.26941254 69.67858067 -56.92221102 62.60495504 -50.33984375 55.68164062 C-46.65159934 51.79695711 -43.07210208 47.8403603 -39.56079102 43.79492188 C-37.69463452 41.6488273 -35.78880724 39.54113832 -33.875 37.4375 C-30.69567865 33.91983871 -27.57837055 30.35710284 -24.49169922 26.75854492 C-16.62264941 17.59066221 -8.54658457 8.54658457 0 0 Z " fill="#0A0E13" transform="translate(216,74)"/>
<path d="M0 0 C2.1328125 1.5234375 2.1328125 1.5234375 4.125 3.375 C4.78757812 3.98085937 5.45015625 4.58671875 6.1328125 5.2109375 C6.74898438 5.80132812 7.36515625 6.39171875 8 7 C8.556875 7.52078125 9.11375 8.0415625 9.6875 8.578125 C11.61005776 10.6608959 11.86620797 12.19036741 12 15 C9.83817078 19.37192695 6.67713538 22.59556162 3.2434082 25.98364258 C2.66750946 26.55983337 2.09161072 27.13602417 1.4982605 27.72967529 C-0.39619472 29.6227432 -2.29762311 31.50863836 -4.19921875 33.39453125 C-5.51816197 34.70974221 -6.83666274 36.02539702 -8.15473938 37.34147644 C-11.61747188 40.79658922 -15.08616939 44.24565242 -18.55615234 47.69348145 C-22.09900673 51.21584166 -25.63617451 54.74390221 -29.17382812 58.27148438 C-36.11033821 65.18657385 -43.05316465 72.09528434 -50 79 C-48.1574934 82.16211368 -46.65292987 84.56747713 -43.75 86.8125 C-41.19174829 88.89237162 -39.02345757 91.03227012 -36.90771484 93.55761719 C-32.4438957 98.72823845 -27.59248804 103.47650835 -22.7265625 108.265625 C-21.75202784 109.23065119 -20.7779455 110.19613436 -19.80429077 111.16204834 C-15.70570159 115.22734113 -11.60267076 119.28807517 -7.48974609 123.33886719 C-4.95950677 125.83147623 -2.43662516 128.33133195 0.08168411 130.83599091 C1.50161905 132.24398996 2.92963355 133.64382583 4.35775757 135.04351807 C5.64512314 136.32570221 5.64512314 136.32570221 6.95849609 137.63378906 C8.09597794 138.75675385 8.09597794 138.75675385 9.25643921 139.90240479 C11.03805802 142.0457858 11.75932429 143.24202252 12 146 C9.73846154 150.63076923 9.73846154 150.63076923 7 152 C7.45375 150.989375 7.9075 149.97875 8.375 148.9375 C9.37813769 145.23274418 9.37813769 145.23274418 7.97265625 143.15234375 C6.39343131 141.323979 4.75371945 139.6621892 3 138 C1.33104917 136.33562063 -0.33516737 134.66849869 -2 133 C-2.98880252 132.01093795 -3.97773994 131.02201076 -4.96679688 130.03320312 C-11.98893229 123.01106771 -19.01106771 115.98893229 -26.03320312 108.96679688 C-26.53327881 108.46744629 -27.03335449 107.9680957 -27.54858398 107.45361328 C-28.95097825 106.04909597 -30.34575205 104.63698242 -31.74023438 103.22460938 C-33.93470635 100.97130829 -33.93470635 100.97130829 -36.375 99.1875 C-39.3277742 96.72685483 -41.67218325 94.01880528 -44.1484375 91.08984375 C-46.52612944 88.40616192 -49.13310105 86.01974648 -51.8125 83.640625 C-53 82 -53 82 -52.953125 80.10546875 C-51.66487497 77.25970332 -49.87607009 75.34696935 -47.75 73.0625 C-46.93917969 72.18980469 -46.12835938 71.31710938 -45.29296875 70.41796875 C-44.53628906 69.62003906 -43.77960937 68.82210937 -43 68 C-42.45988281 67.41863281 -41.91976562 66.83726562 -41.36328125 66.23828125 C-40.28893641 65.11231624 -39.1515555 64.04686864 -38 63 C-37.34 63 -36.68 63 -36 63 C-35.79375 62.46503906 -35.5875 61.93007812 -35.375 61.37890625 C-33.43386536 58.02052273 -30.78266882 55.611881 -28 52.9375 C-23.67183338 48.75878134 -23.67183338 48.75878134 -20 44 C-18.66935477 43.327984 -17.33585853 42.66159218 -16 42 C-14.43544512 40.46447533 -14.43544512 40.46447533 -13.0625 38.6875 C-10.52049136 35.60800197 -7.86028869 32.79377035 -5 30 C-3.4777984 28.48053617 -1.95709133 26.95957432 -0.4375 25.4375 C4 21 4 21 6.2421875 18.91015625 C8.26474543 17.05090465 8.26474543 17.05090465 8.5625 14 C7.82611825 10.07263067 6.19075375 9.23352763 3 7 C3 6.34 3 5.68 3 5 C0.34438268 3.19418023 -1.17110233 3 -4.4375 3 C-8.25274947 4.07094722 -9.39982119 5.17475413 -11.6875 8.3203125 C-13.13408747 10.17160004 -14.69538253 11.56124495 -16.5 13.0625 C-21.61800183 17.33117825 -26.01327105 22.08783103 -30.3515625 27.1328125 C-31.84611624 28.82569565 -33.38641737 30.42149526 -35 32 C-35.78375 32.78375 -36.5675 33.5675 -37.375 34.375 C-38.24125 35.24125 -39.1075 36.1075 -40 37 C-40.804375 37.825 -41.60875 38.65 -42.4375 39.5 C-45 42 -45 42 -47.9375 44.3125 C-51.15755934 46.90851683 -53.37084818 50.03394856 -55.703125 53.42578125 C-56.13109375 53.94527344 -56.5590625 54.46476562 -57 55 C-57.66 55 -58.32 55 -59 55 C-59 55.66 -59 56.32 -59 57 C-63.47058824 61 -63.47058824 61 -66 61 C-66 61.66 -66 62.32 -66 63 C-66.66 63 -67.32 63 -68 63 C-68.2475 63.61875 -68.495 64.2375 -68.75 64.875 C-70.20628639 67.35068687 -71.37812506 67.95125002 -74 69 C-74 69.66 -74 70.32 -74 71 C-74.66 71 -75.32 71 -76 71 C-76.28875 71.61875 -76.5775 72.2375 -76.875 72.875 C-78 75 -78 75 -80 77 C-80.50042146 79.91538029 -80.50042146 79.91538029 -80 83 C-78.12498069 85.37719693 -78.12498069 85.37719693 -76 87 C-76.495 87.99 -76.495 87.99 -77 89 C-83 83 -83 83 -83.5 80.4375 C-82.22837261 71.69506167 -70.86953728 63.75207436 -64.73248291 57.65731812 C-62.83728107 55.77503824 -60.94535947 53.88951382 -59.05419922 52.00317383 C-54.35946322 47.32171095 -49.65926516 42.64574455 -44.95922852 37.96960449 C-40.9765437 34.00674472 -36.9959784 30.04177822 -33.01812744 26.07406616 C-31.16632966 24.22868641 -29.31151551 22.38637706 -27.45654297 20.54418945 C-22.24527871 15.35486468 -17.08925442 10.19157797 -12.375 4.53662109 C-8.67849583 0.40562017 -5.56716977 -1.72919667 0 0 Z " fill="#0E1217" transform="translate(101,107)"/>
<path d="M0 0 C4.71862941 1.5080701 7.30685665 4.39874906 10.72393799 7.89179993 C11.44336578 8.607285 12.16279358 9.32277008 12.90402222 10.05993652 C15.27655983 12.42576678 17.63068247 14.80904667 19.98468018 17.1933136 C21.62946311 18.84234692 23.27520858 20.4904207 24.921875 22.13757324 C28.36916092 25.5910247 31.80801581 29.05258263 35.24053955 32.52070618 C39.64268909 36.96814532 44.05996779 41.40016138 48.48295975 45.82686329 C51.88090836 49.22923877 55.27338917 52.63702025 58.66396332 56.04674339 C60.2912202 57.68288492 61.91955829 59.31795182 63.54898834 60.95192909 C65.82343003 63.23540509 68.09106325 65.52542287 70.35675049 67.81758118 C71.03208832 68.49358368 71.70742615 69.16958618 72.40322876 69.86607361 C73.01995453 70.49277451 73.6366803 71.1194754 74.27209473 71.76516724 C74.80815968 72.30588269 75.34422462 72.84659815 75.89653397 73.40369892 C78.38491135 76.35931315 79.34951409 78.21628569 79.03155518 82.11128235 C78.28155518 85.04878235 78.28155518 85.04878235 76.28155518 88.04878235 C75.62155518 88.04878235 74.96155518 88.04878235 74.28155518 88.04878235 C74.28155518 88.70878235 74.28155518 89.36878235 74.28155518 90.04878235 C72.40655518 92.17378235 72.40655518 92.17378235 70.28155518 94.04878235 C69.62155518 94.04878235 68.96155518 94.04878235 68.28155518 94.04878235 C68.06837646 94.58793274 67.85519775 95.12708313 67.63555908 95.68257141 C65.7865669 98.91380693 63.25359889 101.32276927 60.61749268 103.90815735 C60.06542145 104.45739868 59.51335022 105.00664001 58.94454956 105.57252502 C57.18653703 107.31937528 55.42168627 109.05912836 53.65655518 110.79878235 C52.46078437 111.98451826 51.26546652 113.17071115 50.07061768 114.3573761 C47.14615264 117.2598332 44.21553644 120.15594645 41.28155518 123.04878235 C40.29155518 122.05878235 40.29155518 122.05878235 39.28155518 121.04878235 C40.35981882 119.77364472 41.44441036 118.50385666 42.53155518 117.23628235 C43.13483643 116.52858704 43.73811768 115.82089172 44.35968018 115.0917511 C46.21966731 113.11456965 48.01259061 111.53486038 50.28155518 110.04878235 C50.94155518 110.04878235 51.60155518 110.04878235 52.28155518 110.04878235 C52.77655518 108.56378235 52.77655518 108.56378235 53.28155518 107.04878235 C53.94155518 107.04878235 54.60155518 107.04878235 55.28155518 107.04878235 C55.28155518 106.05878235 55.28155518 105.06878235 55.28155518 104.04878235 C56.85577393 102.40034485 56.85577393 102.40034485 58.96905518 100.67378235 C62.24104024 97.9317667 65.30046441 95.11044313 68.28155518 92.04878235 C69.16843018 91.18253235 70.05530518 90.31628235 70.96905518 89.42378235 C73.62201527 86.69912063 75.15838595 84.99307973 75.65655518 81.17378235 C75.03505609 75.99462333 71.90650835 73.50164724 68.03155518 70.36128235 C66.67030518 69.21659485 66.67030518 69.21659485 65.28155518 68.04878235 C65.28155518 67.38878235 65.28155518 66.72878235 65.28155518 66.04878235 C64.62155518 66.04878235 63.96155518 66.04878235 63.28155518 66.04878235 C63.28155518 65.38878235 63.28155518 64.72878235 63.28155518 64.04878235 C62.69599854 63.79370911 62.11044189 63.53863586 61.50714111 63.27583313 C59.05403717 61.92334296 57.56473116 60.47413178 55.67218018 58.41596985 C54.99928955 57.69151672 54.32639893 56.9670636 53.63311768 56.22065735 C52.59284424 55.08370422 52.59284424 55.08370422 51.53155518 53.92378235 C46.22768669 48.17624425 40.84743098 42.54365478 35.28155518 37.04878235 C33.61488851 35.38211568 31.94822184 33.71544902 30.28155518 32.04878235 C29.51834961 31.28992737 28.75514404 30.53107239 27.96881104 29.7492218 C25.27142665 27.03860413 22.62014296 24.28885661 19.97296143 21.5292511 C18.45341507 19.96550397 16.93101087 18.40460202 15.4072876 16.84492493 C14.36151499 15.76877379 13.32116195 14.6873305 12.28619385 13.6007843 C10.77916639 12.02091679 9.2535054 10.4613044 7.72296143 8.9042511 C6.82263184 7.97250061 5.92230225 7.04075012 4.99468994 6.08076477 C2.41395435 3.8011644 2.41395435 3.8011644 -0.89886475 3.63545227 C-4.60721327 4.17906938 -5.98996031 5.51770218 -8.59344482 8.17378235 C-9.76520264 9.32233704 -9.76520264 9.32233704 -10.96063232 10.49409485 C-13.08659478 13.58382696 -13.06986972 15.37479478 -12.71844482 19.04878235 C-12.14094482 19.27565735 -11.56344482 19.50253235 -10.96844482 19.73628235 C-8.12253101 21.39639874 -6.72002562 23.44066192 -4.71844482 26.04878235 C-1.73113384 29.20679681 1.44430437 32.07211177 4.71905518 34.92378235 C8.10448947 37.90498568 11.08264569 40.98002843 13.94952393 44.45503235 C16.57504241 47.59641517 19.40412232 50.37916254 22.65655518 52.86128235 C25.58934239 55.3052717 27.90962331 57.99953294 30.38702393 60.89253235 C34.30842138 65.35564863 38.45304782 69.58597646 43.09405518 73.29878235 C45.34230032 75.09737847 46.9003641 76.51659872 48.28155518 79.04878235 C48.28155518 83.85017692 45.40867349 86.71963111 42.28155518 90.04878235 C41.04405518 91.37909485 41.04405518 91.37909485 39.78155518 92.73628235 C37.38327441 94.95469206 35.21748903 96.6204902 32.28155518 98.04878235 C31.29155518 97.55378235 31.29155518 97.55378235 30.28155518 97.04878235 C35.56155518 91.76878235 40.84155518 86.48878235 46.28155518 81.04878235 C41.16899901 74.4448731 41.16899901 74.4448731 37.28155518 72.04878235 C37.28155518 71.38878235 37.28155518 70.72878235 37.28155518 70.04878235 C35.96155518 69.38878235 34.64155518 68.72878235 33.28155518 68.04878235 C33.28155518 67.38878235 33.28155518 66.72878235 33.28155518 66.04878235 C32.62155518 66.04878235 31.96155518 66.04878235 31.28155518 66.04878235 C29.87771606 64.61875916 29.87771606 64.61875916 28.23028564 62.61763 C24.11354722 57.77947662 19.64897531 53.37784896 15.10186768 48.94721985 C13.35127872 47.22385957 11.60129616 45.49988313 9.85186768 43.77534485 C7.11877102 41.08564634 4.3821357 38.39999961 1.6350708 35.7245636 C-1.03329722 33.12266738 -3.68557378 30.50524479 -6.33563232 27.88471985 C-7.57456741 26.68919998 -7.57456741 26.68919998 -8.83853149 25.4695282 C-9.59667145 24.71499359 -10.3548114 23.96045898 -11.13592529 23.18305969 C-11.80542206 22.52768219 -12.47491882 21.87230469 -13.16470337 21.19706726 C-15.13020077 18.47946686 -15.48797608 16.36900455 -15.71844482 13.04878235 C-13.93492972 9.89771573 -11.31089299 7.55893057 -8.71844482 5.04878235 C-8.19250732 4.50221985 -7.66656982 3.95565735 -7.12469482 3.39253235 C-4.76894608 1.13702823 -3.30176195 0.05924994 0 0 Z " fill="#090D11" transform="translate(279.71844482421875,105.95121765136719)"/>
<path d="M0 0 C0.625 1.875 0.625 1.875 1 4 C0.34 4.66 -0.32 5.32 -1 6 C-1.99 6 -2.98 6 -4 6 C-4.226875 6.721875 -4.45375 7.44375 -4.6875 8.1875 C-6.26335128 11.56432417 -8.20876616 13.55767039 -11 16 C-11.66 16 -12.32 16 -13 16 C-13.268125 16.61875 -13.53625 17.2375 -13.8125 17.875 C-15 20 -15 20 -18 22 C-18.58382282 24.42759115 -18.58382282 24.42759115 -18 27 C-16.27891561 29.0349176 -16.27891561 29.0349176 -14 30.6875 C-12.6369419 31.75475556 -11.29564891 32.85184683 -10 34 C-10 34.66 -10 35.32 -10 36 C-7.19082439 36.52063388 -5.72433416 36.69138879 -3 36 C0.42823626 33.47824642 3.23337425 30.42231641 6.125 27.3125 C6.91003906 26.49587891 7.69507813 25.67925781 8.50390625 24.83789062 C10.02201479 23.25706091 11.53343853 21.66977814 13.03735352 20.07543945 C15.31270311 17.66932589 17.64470685 15.32776886 20 13 C21.0383506 11.96283011 22.07607135 10.92502939 23.11328125 9.88671875 C26.07552083 6.92447917 29.03776042 3.96223958 32 1 C32.99 1.33 33.98 1.66 35 2 C29.91316278 7.11213202 24.82245654 12.22038697 19.72900391 17.32592773 C17.99568142 19.06428801 16.26325629 20.80354351 14.53173828 22.54370117 C12.04693577 25.04059345 9.55895464 27.53427914 7.0703125 30.02734375 C6.29317902 30.80963852 5.51604553 31.59193329 4.71536255 32.39793396 C3.99476654 33.1186055 3.27417053 33.83927704 2.53173828 34.58178711 C1.89664337 35.21910263 1.26154846 35.85641815 0.60720825 36.51304626 C-1.60762447 38.5621608 -2.77910471 38.97545608 -5.8125 39.3125 C-9.72327296 38.92909089 -11.2543075 37.7456925 -14 35 C-14 34.34 -14 33.68 -14 33 C-14.598125 32.7525 -15.19625 32.505 -15.8125 32.25 C-18.42242763 30.75861278 -19.59357486 29.66480553 -21 27 C-21.18927923 22.83585691 -19.84878873 20.50820808 -17.25 17.4375 C-11.68501349 11.45251451 -5.81721199 5.73848281 0 0 Z " fill="#090D12" transform="translate(285,228)"/>
<path d="M0 0 C0.99 0.33 1.98 0.66 3 1 C3 1.66 3 2.32 3 3 C3.89369797 3.4062133 3.89369797 3.4062133 4.80545044 3.82063293 C6.97507588 4.98660559 8.38270402 6.13491143 10.11279297 7.86987305 C10.69374725 8.4477507 11.27470154 9.02562836 11.8732605 9.62101746 C12.49000641 10.24494888 13.10675232 10.86888031 13.7421875 11.51171875 C14.38817902 12.15816849 15.03417053 12.80461823 15.69973755 13.47065735 C17.06538247 14.83932047 18.428599 16.21041032 19.78955078 17.58374023 C21.85534254 19.66766994 23.92890454 21.74360428 26.00390625 23.81835938 C27.33380372 25.15317734 28.66324538 26.48844963 29.9921875 27.82421875 C30.60488495 28.43802902 31.2175824 29.05183929 31.84884644 29.68424988 C35.30050407 33.17340559 38.56663844 36.74971616 41.6958313 40.53181458 C43.08842904 42.18432964 43.08842904 42.18432964 45.4375 43.9375 C48.41220248 46.33177273 50.70427304 49.03022665 53.18359375 51.921875 C61.87125508 62.19907851 61.87125508 62.19907851 73 69 C77.1991307 66.70116244 77.1991307 66.70116244 80 63 C81.485 63.495 81.485 63.495 83 64 C81.83691398 65.21142206 80.64316121 66.39344331 79.4375 67.5625 C78.77621094 68.22378906 78.11492187 68.88507813 77.43359375 69.56640625 C73.87647898 71.66184946 71.95895588 71.00701865 68 70 C65.50665625 68.33245255 63.503581 66.28449507 61.42211914 64.13500977 C60.80662201 63.52360138 60.19112488 62.91219299 59.55697632 62.28225708 C57.5348924 60.26616924 55.53506249 58.2294764 53.53515625 56.19140625 C52.13385391 54.78398671 50.73136529 53.37774738 49.32774353 51.97264099 C46.39438039 49.03008512 43.47109966 46.0779971 40.55541992 43.11791992 C36.81065785 39.31643758 33.04861132 35.53267139 29.27985477 31.75499058 C26.38703558 28.85387683 23.49992343 25.94714394 20.61489677 23.03828239 C19.22868526 21.64064946 17.84151484 20.24396695 16.45338631 18.84823799 C14.5209654 16.90213251 12.59549672 14.94942315 10.67211914 12.99438477 C10.09401993 12.41404984 9.51592072 11.8337149 8.92030334 11.23579407 C5 7.22938862 5 7.22938862 5 5 C4.01 4.67 3.02 4.34 2 4 C0.8125 1.9375 0.8125 1.9375 0 0 Z " fill="#0B0F14" transform="translate(25,196)"/>
<path d="M0 0 C4.63079633 1.41695864 6.80764928 3.65651332 9.95703125 7.27734375 C15.5233527 13.521983 21.37444567 19.43752565 27.32421875 25.31640625 C28.24349152 26.22756195 29.16276428 27.13871765 30.1098938 28.07748413 C33.94773253 31.8797593 37.78858334 35.67888862 41.6394043 39.46801758 C44.47979873 42.2636495 47.30826546 45.0711925 50.13671875 47.87890625 C51.01261154 48.73617813 51.88850433 49.59345001 52.79093933 50.47669983 C53.59300308 51.2753093 54.39506683 52.07391876 55.22143555 52.89672852 C55.92914597 53.59476089 56.63685638 54.29279327 57.36601257 55.01197815 C59.08204672 57.0998237 59.74546675 58.32386538 60 61 C57.73846154 65.63076923 57.73846154 65.63076923 55 67 C55.45375 65.989375 55.9075 64.97875 56.375 63.9375 C57.37813769 60.23274418 57.37813769 60.23274418 55.97265625 58.15234375 C54.39343131 56.323979 52.75371945 54.6621892 51 53 C49.33104917 51.33562063 47.66483263 49.66849869 46 48 C45.01119748 47.01093795 44.02226006 46.02201076 43.03320312 45.03320312 C36.01106771 38.01106771 28.98893229 30.98893229 21.96679688 23.96679688 C21.46672119 23.46744629 20.96664551 22.9680957 20.45141602 22.45361328 C19.04902175 21.04909597 17.65424795 19.63698242 16.25976562 18.22460938 C14.06529365 15.97130829 14.06529365 15.97130829 11.625 14.1875 C6.87033882 10.22528235 2.57230492 5.67681086 0 0 Z " fill="#080C10" transform="translate(53,192)"/>
<path d="M0 0 C0.33 0.99 0.66 1.98 1 3 C-0.046875 4.65625 -0.046875 4.65625 -1.75 6.5 C-2.389375 7.19480469 -3.02875 7.88960937 -3.6875 8.60546875 C-8.06186335 13.13500378 -12.51533555 17.57960621 -17 22 C-18.00106895 22.99892991 -19.00166528 23.99833749 -20 25 C-20.99 24.67 -21.98 24.34 -23 24 C-18.32533663 18.37696243 -13.32234333 13.20258446 -8.125 8.0625 C-7.34125 7.28326172 -6.5575 6.50402344 -5.75 5.70117188 C-3.83561419 3.79845915 -1.91891966 1.89813829 0 0 Z " fill="#10161C" transform="translate(309,204)"/>
<path d="M0 0 C2.33333333 2.33333333 4.66666667 4.66666667 7 7 C6.86621188 11.8163722 4.14655397 14.65015743 1 18 C0.175 18.886875 -0.65 19.77375 -1.5 20.6875 C-3.89828077 22.90590971 -6.06406614 24.57170785 -9 26 C-9.66 25.67 -10.32 25.34 -11 25 C-5.72 19.72 -0.44 14.44 5 9 C3.35 7.02 1.7 5.04 0 3 C0 2.01 0 1.02 0 0 Z " fill="#0E141A" transform="translate(321,178)"/>
<path d="M0 0 C0.625 1.875 0.625 1.875 1 4 C0.34 4.66 -0.32 5.32 -1 6 C-1.99 6 -2.98 6 -4 6 C-4.226875 6.721875 -4.45375 7.44375 -4.6875 8.1875 C-6.24831013 11.53209313 -8.3031287 13.51603959 -11 16 C-11.66 15.67 -12.32 15.34 -13 15 C-9.54122788 9.13512553 -4.88678132 4.69882819 0 0 Z " fill="#10131C" transform="translate(285,228)"/>
<path d="M0 0 C0.66 0.33 1.32 0.66 2 1 C0.59535704 2.82183392 -0.8241624 4.63220561 -2.25 6.4375 C-3.43335938 7.95150391 -3.43335938 7.95150391 -4.640625 9.49609375 C-6.90655283 11.90082842 -7.78577367 12.71248893 -11 13 C-10.62488281 12.56429687 -10.24976563 12.12859375 -9.86328125 11.6796875 C-6.54140223 7.81392401 -3.25357073 3.92342352 0 0 Z " fill="#04070B" transform="translate(184,109)"/>
<path d="M0 0 C0.66 0.33 1.32 0.66 2 1 C1.67 1.99 1.34 2.98 1 4 C0.34 4 -0.32 4 -1 4 C-0.67 5.32 -0.34 6.64 0 8 C-1.98 8.66 -3.96 9.32 -6 10 C-5.49477778 5.62140745 -2.82172778 3.18348776 0 0 Z " fill="#171D24" transform="translate(157,141)"/>
<path d="M0 0 C1.9375 0.6875 1.9375 0.6875 4 2 C5.09809194 5.29427581 5.11196276 6.66411172 4 10 C3.01 9.67 2.02 9.34 1 9 C1.020625 8.071875 1.04125 7.14375 1.0625 6.1875 C1.15769604 2.97713989 1.15769604 2.97713989 0 0 Z " fill="#0A0D12" transform="translate(108,115)"/>
<path d="M0 0 C0.99 0.33 1.98 0.66 3 1 C2 4 2 4 -1.0625 5.6875 C-2.031875 6.120625 -3.00125 6.55375 -4 7 C-3.6875 4.625 -3.6875 4.625 -3 2 C-2.01 1.34 -1.02 0.68 0 0 Z " fill="#192127" transform="translate(313,202)"/>
<path d="M0 0 C0.99 0.33 1.98 0.66 3 1 C3 1.66 3 2.32 3 3 C1.37373596 4.38232443 -0.2925002 5.71937515 -2 7 C-2.6875 5.1875 -2.6875 5.1875 -3 3 C-1.5625 1.25 -1.5625 1.25 0 0 Z " fill="#1A2127" transform="translate(332,210)"/>
</svg>
