<?xml version="1.0" encoding="UTF-8"?>
<svg version="1.1" xmlns="http://www.w3.org/2000/svg" width="376" height="331">
<path d="M0 0 C0.66 0 1.32 0 2 0 C2.41442511 8.05327036 0.86815935 15.81862503 -0.484375 23.72265625 C-0.74438471 25.27028848 -1.00383415 26.81801493 -1.26275635 28.36582947 C-1.94590455 32.43992836 -2.63694465 36.51265056 -3.32958984 40.58514404 C-4.0190131 44.64771671 -4.70043457 48.71162987 -5.3828125 52.77539062 C-8.20023943 69.52667911 -11.0894517 86.26434727 -14 103 C6.46 103 26.92 103 48 103 C48 125 48 125 42.5625 132.6875 C39.2265625 135.9765625 39.2265625 135.9765625 37.55566406 137.51660156 C35.28238218 139.68428215 33.37927841 142.09820667 31.4375 144.5625 C27.71248849 149.14972032 23.91023414 153.66438155 20.08349609 158.16650391 C17.20442157 161.55973475 14.36788508 164.9827672 11.5625 168.4375 C8.15525229 172.62823248 4.6591359 176.72932291 1.125 180.8125 C-2.95058934 185.5248192 -6.87311059 190.32408837 -10.6875 195.25 C-14.54127614 200.22539756 -18.56822675 204.9483887 -22.828125 209.5859375 C-25.88488291 212.9835569 -28.74200238 216.53062663 -31.6171875 220.08203125 C-34.20755848 223.25417407 -36.84682867 226.38043294 -39.5 229.5 C-43.61110498 234.3374712 -47.65147432 239.22617947 -51.65625 244.15234375 C-54.87527199 248.06345547 -58.15918943 251.91858408 -61.45898438 255.76171875 C-63.9946086 258.69812204 -63.9946086 258.69812204 -66 262 C-66.99 262 -67.98 262 -69 262 C-69.30308803 256.94853287 -68.78798914 252.63467677 -67.65258789 247.69775391 C-65.91989049 239.83149288 -64.61496255 231.91680997 -63.37109375 223.9609375 C-63.13389588 222.46264255 -62.89634454 220.96440352 -62.65846252 219.46621704 C-62.03945656 215.56212329 -61.42487941 211.65734607 -60.81140137 207.75238037 C-60.06760759 203.02310982 -59.31866281 198.29465281 -58.5703516 193.56609535 C-57.98779979 189.88447546 -57.4059973 186.20274343 -56.82676697 182.52059937 C-56.71913528 181.83752213 -56.6115036 181.15444489 -56.50061035 180.45066833 C-56.21270923 178.62328337 -55.92529506 176.7958217 -55.63792419 174.96835327 C-54.78166739 169.64181209 -53.88692022 164.32152133 -53 159 C-73.46 159 -93.92 159 -115 159 C-115 138 -115 138 -112.1875 133 C-110.81564793 131.64200502 -109.4167089 130.31113094 -108 129 C-106.1866237 126.8893936 -104.39931553 124.76755226 -102.625 122.625 C-101.66940846 121.5000775 -100.71238292 120.37637152 -99.75390625 119.25390625 C-97.31821908 116.38745161 -94.9327786 113.48340594 -92.5625 110.5625 C-89.15525229 106.37176752 -85.6591359 102.27067709 -82.125 98.1875 C-78.04941066 93.4751808 -74.12688941 88.67591163 -70.3125 83.75 C-66.45758452 78.77313151 -62.42946741 74.04877869 -58.16796875 69.41015625 C-55.1335134 66.03671669 -52.30311771 62.51065853 -49.44921875 58.984375 C-46.68189198 55.61238513 -43.84849585 52.30337679 -41 49 C-36.68048535 43.98700394 -32.44902234 38.91461883 -28.27734375 33.77734375 C-25.71796001 30.65603699 -23.11408796 27.5754772 -20.5 24.5 C-17.02152383 20.40728352 -13.58121253 16.28871454 -10.1875 12.125 C-8.79175813 10.41659194 -7.39593263 8.70825219 -6 7 C-5.39929688 6.26136719 -4.79859375 5.52273437 -4.1796875 4.76171875 C-2.83116478 3.13632542 -1.42239062 1.56116044 0 0 Z M-31 69 C-36.20260188 74.37513715 -40.87847443 80.2523493 -45.58984375 86.0546875 C-48.1541814 89.18841617 -50.75603004 92.28695389 -53.375 95.375 C-53.83479248 95.91721191 -54.29458496 96.45942383 -54.76831055 97.01806641 C-56.64977869 99.23498503 -58.53293145 101.4504697 -60.41601562 103.66601562 C-65.9312214 110.15763404 -71.41043954 116.67219509 -76.78515625 123.28125 C-78.36894032 125.2253659 -79.95915323 127.16262272 -81.55859375 129.09375 C-82.38488281 130.0940625 -83.21117187 131.094375 -84.0625 132.125 C-85.19365234 133.49011719 -85.19365234 133.49011719 -86.34765625 134.8828125 C-88.10254147 136.68378029 -88.10254147 136.68378029 -88 138 C-58.795 138.495 -58.795 138.495 -29 139 C-33.0625 164.25 -33.0625 164.25 -34.35571289 172.20800781 C-34.68699218 174.28961314 -35.01768043 176.37131265 -35.34765625 178.453125 C-35.61443176 180.07420166 -35.61443176 180.07420166 -35.88659668 181.72802734 C-36.0491394 182.7629834 -36.21168213 183.79793945 -36.37915039 184.86425781 C-36.52349014 185.76138489 -36.6678299 186.65851196 -36.81654358 187.58282471 C-37.00002166 190.0002854 -36.73609291 191.70619016 -36 194 C-35.29875 193.09378906 -34.5975 192.18757813 -33.875 191.25390625 C-29.06434063 185.06646171 -24.21693898 178.99269191 -18.9453125 173.1875 C-16.80743002 170.78345545 -14.77648518 168.31110538 -12.75 165.8125 C-9.23508736 161.47946114 -5.64261094 157.22531387 -2 153 C2.34729437 147.95267696 6.62306981 142.85711816 10.8203125 137.68359375 C12.38980562 135.75126082 13.96678938 133.82722362 15.5546875 131.91015625 C16.79605469 130.40775391 16.79605469 130.40775391 18.0625 128.875 C18.81660156 127.96492188 19.57070312 127.05484375 20.34765625 126.1171875 C22.10254147 124.31621971 22.10254147 124.31621971 22 123 C2.2 123 -17.6 123 -38 123 C-36.35 113.43 -34.7 103.86 -33 94 C-30.68399917 81.56784667 -30.68399917 81.56784667 -30 69 C-30.33 69 -30.66 69 -31 69 Z " fill="#F2F1ED" transform="translate(221,47)"/>
<path d="M0 0 C4.07376031 1.61010527 6.76507069 4.53822271 9.75 7.625 C10.25660156 8.140625 10.76320313 8.65625 11.28515625 9.1875 C12.52803902 10.45383339 13.76465276 11.7263144 15 13 C13.46781315 16.63061667 11.2816856 18.9863773 8.5 21.75 C7.7059375 22.54921875 6.911875 23.3484375 6.09375 24.171875 C4 26 4 26 2 26 C2 26.66 2 27.32 2 28 C0.70703125 29.26953125 0.70703125 29.26953125 -1.1875 30.8125 C-5.03774712 34.08656577 -8.62982238 37.54128022 -12.1875 41.125 C-12.73841309 41.67921631 -13.28932617 42.23343262 -13.85693359 42.80444336 C-15.5732662 44.53435065 -17.28706408 46.26672962 -19 48 C-31.89048997 61.04351444 -31.89048997 61.04351444 -38.109375 66.33642578 C-41.91548853 69.68545181 -45.43682411 73.33418435 -49 76.9375 C-49.77472656 77.71673828 -50.54945312 78.49597656 -51.34765625 79.29882812 C-53.23410757 81.1969242 -55.11816245 83.09733149 -57 85 C-55.6801998 87.92065013 -54.25611796 89.992845 -51.99072266 92.25219727 C-51.38314117 92.86285538 -50.77555969 93.47351349 -50.14956665 94.10267639 C-49.49435028 94.75070724 -48.83913391 95.3987381 -48.1640625 96.06640625 C-47.4883017 96.74170883 -46.81254089 97.41701141 -46.11630249 98.11277771 C-44.68797299 99.53808977 -43.25721748 100.96097423 -41.82421875 102.3815918 C-39.63485824 104.55272384 -37.45357779 106.73172302 -35.2734375 108.91210938 C-33.88328292 110.29734725 -32.49267292 111.68212827 -31.1015625 113.06640625 C-30.45039459 113.71646133 -29.79922668 114.36651642 -29.12832642 115.03627014 C-26.67842074 117.460715 -24.33061245 119.75535999 -21.55615234 121.80834961 C-21.04262207 122.20159424 -20.5290918 122.59483887 -20 123 C-20 123.66 -20 124.32 -20 125 C-19.40805847 125.26662445 -18.81611694 125.5332489 -18.20623779 125.80795288 C-15.95541205 127.02409121 -14.49513234 128.26310428 -12.70019531 130.07275391 C-12.07985413 130.69324615 -11.45951294 131.3137384 -10.82037354 131.95303345 C-10.16293152 132.62079803 -9.5054895 133.28856262 -8.828125 133.9765625 C-8.1457074 134.66181 -7.46328979 135.3470575 -6.76019287 136.05307007 C-4.58538402 138.23905845 -2.41763928 140.43190429 -0.25 142.625 C1.2247999 144.10983255 2.70005506 145.59421306 4.17578125 147.078125 C7.78915448 150.7135291 11.39620853 154.35509824 15 158 C11 162.66666667 7 167.33333333 3 172 C-1.90558571 171.60214453 -4.31545891 169.19973088 -7.5625 165.79296875 C-8.07627197 165.27116531 -8.59004395 164.74936188 -9.11938477 164.21174622 C-10.75600068 162.54621357 -12.37839465 160.86763923 -14 159.1875 C-15.62408932 157.52070958 -17.25104194 155.85681773 -18.88061523 154.19538879 C-19.89170829 153.16284153 -20.8992524 152.12680267 -21.90258789 151.0867157 C-24.1226173 148.80455032 -26.33583585 146.73755626 -28.84765625 144.7746582 C-29.91306641 143.89620239 -29.91306641 143.89620239 -31 143 C-31 142.34 -31 141.68 -31 141 C-31.928125 140.62875 -31.928125 140.62875 -32.875 140.25 C-35 139 -35 139 -36 136.9375 C-36.495 135.9784375 -36.495 135.9784375 -37 135 C-37.62003906 134.86207031 -38.24007812 134.72414062 -38.87890625 134.58203125 C-41.51878638 133.85764425 -42.26489495 132.8812973 -43.9375 130.75 C-46.43389786 127.60690297 -49.15155693 124.82935716 -52 122 C-53.60075871 120.38851566 -55.20100587 118.77652304 -56.80078125 117.1640625 C-58.63794865 115.31763651 -60.47519045 113.47128454 -62.3125 111.625 C-63.22451172 110.70460938 -64.13652344 109.78421875 -65.07617188 108.8359375 C-69.69912807 104.19641157 -74.36680461 99.6965399 -79.34057617 95.43457031 C-81.31595894 93.72685379 -83.1730548 91.92750656 -85 90.0625 C-85.5775 89.47597656 -86.155 88.88945312 -86.75 88.28515625 C-87.1625 87.86105469 -87.575 87.43695313 -88 87 C-87.1875 85.0625 -87.1875 85.0625 -86 83 C-84.515 82.505 -84.515 82.505 -83 82 C-82.31158918 80.67776221 -81.64703274 79.34297091 -81 78 C-79.47216797 76.49780273 -79.47216797 76.49780273 -77.6171875 74.99609375 C-73.98693159 71.92440184 -70.59465139 68.66947021 -67.2578125 65.28515625 C-66.50960236 64.52844131 -66.50960236 64.52844131 -65.74627686 63.75643921 C-63.6726725 61.6557828 -61.60338161 59.55096443 -59.53808594 57.44213867 C-58.01146331 55.88550349 -56.47882953 54.33499536 -54.9453125 52.78515625 C-54.04312988 51.86613525 -53.14094727 50.94711426 -52.21142578 50.00024414 C-50 48 -50 48 -48 48 C-47.67322266 47.16662109 -47.67322266 47.16662109 -47.33984375 46.31640625 C-45.5799631 43.27381375 -43.17246469 41.229564 -40.5625 38.9375 C-33.62970908 32.71164489 -27.07479897 26.13700964 -20.53735352 19.49975586 C-16.8369615 15.7601493 -13.19773738 12.18934237 -9 9 C-7.31288577 7.3540349 -5.6454378 5.68762851 -4 4 C-2.66666667 2.66666667 -1.33333333 1.33333333 0 0 Z " fill="#F2F2ED" transform="translate(108,92)"/>
<path d="M0 0 C3.57258906 0.57824532 5.21102884 1.85436225 7.71484375 4.421875 C8.40126953 5.11796875 9.08769531 5.8140625 9.79492188 6.53125 C10.50197266 7.2634375 11.20902344 7.995625 11.9375 8.75 C12.64068359 9.46671875 13.34386719 10.1834375 14.06835938 10.921875 C16.84813694 13.75636234 19.61508955 16.60308085 22.37890625 19.453125 C24.68797268 21.69680803 27.05105384 23.82732604 29.4609375 25.9609375 C36.11577663 31.91552679 42.34951083 38.27698179 48.625 44.625 C58.06035226 54.22310948 58.06035226 54.22310948 68.02880859 63.25585938 C72.38177036 67.10742723 76.41113696 71.31000671 80.5 75.4375 C81.4178125 76.35982422 82.335625 77.28214844 83.28125 78.23242188 C85.52315055 80.48599899 87.762666 82.74189075 90 85 C88.62850763 88.07486553 87.06548894 90.18314469 84.68701172 92.5559082 C83.67488113 93.57265373 83.67488113 93.57265373 82.64230347 94.60993958 C81.54705856 95.6944062 81.54705856 95.6944062 80.4296875 96.80078125 C79.67462921 97.55538132 78.91957092 98.30998138 78.14163208 99.08744812 C76.54177249 100.68428739 74.93948395 102.27869627 73.33496094 103.87084961 C70.89988651 106.28779873 68.47277849 108.71252165 66.046875 111.13867188 C64.4874476 112.69317839 62.92756589 114.24722932 61.3671875 115.80078125 C60.64916962 116.51768631 59.93115173 117.23459137 59.19137573 117.97322083 C55.20558903 121.9223491 51.11791154 125.68352626 46.87136841 129.34977722 C44.06445608 131.82498768 41.43599462 134.45816618 38.8125 137.125 C37.9922937 137.95088623 37.9922937 137.95088623 37.15551758 138.79345703 C35.43450493 140.52650817 33.71682168 142.26279773 32 144 C18.9239127 157.23131502 18.9239127 157.23131502 12.59179688 162.61328125 C9.78763701 165.05616898 7.34824893 167.83747639 4.859375 170.59375 C3 172 3 172 1.12890625 172.05078125 C-2.03676932 170.48827349 -4.35144869 168.16135261 -6.8125 165.6875 C-7.32748047 165.20087891 -7.84246094 164.71425781 -8.37304688 164.21289062 C-9.83203125 162.76171875 -9.83203125 162.76171875 -12 160 C-11.96390527 156.6371746 -10.86026543 155.84235074 -8.5625 153.25 C-6 151 -6 151 -4 151 C-3.731875 150.360625 -3.46375 149.72125 -3.1875 149.0625 C-2 147 -2 147 1 146 C1 145.34 1 144.68 1 144 C2.49031067 142.53092957 2.49031067 142.53092957 4.53833008 140.83276367 C8.69479501 137.29639232 12.55534192 133.55834706 16.38671875 129.67578125 C17.05161819 129.00709518 17.71651764 128.33840912 18.40156555 127.64945984 C20.49935735 125.53958511 22.59383803 123.42647236 24.6875 121.3125 C27.45931253 118.51400183 30.23448585 115.71889914 33.01171875 112.92578125 C33.63890305 112.29029861 34.26608734 111.65481598 34.91227722 111.00007629 C38.1297921 107.76468225 41.38601925 104.79938329 45 102 C46.68779457 100.35473253 48.35387544 98.68695865 50 97 C53.33333333 93.66666667 56.66666667 90.33333333 60 87 C58.46074497 83.63027953 56.97852245 82.1842498 54 80 C54 79.34 54 78.68 54 78 C53.34 78 52.68 78 52 78 C50.7528148 76.52307016 49.50964765 75.04202596 48.30859375 73.52734375 C46.74490246 71.70225929 44.92388382 70.42509913 43 69 C43 68.34 43 67.68 43 67 C42.44296387 66.76966064 41.88592773 66.53932129 41.31201172 66.30200195 C38.37200969 64.64634928 36.37084339 62.57713017 34.0078125 60.16796875 C33.53938934 59.69434402 33.07096619 59.2207193 32.58834839 58.73274231 C31.09570783 57.2223592 29.60992769 55.70546359 28.125 54.1875 C26.64640285 52.68109149 25.16630218 51.17624307 23.68307495 49.6743927 C22.33109341 48.30470915 20.9840065 46.93019929 19.63720703 45.55541992 C17.72451303 43.70204387 15.84007811 42.00398656 13.78857422 40.3215332 C11 38 11 38 9.125 35.625 C7.3069653 33.37919243 5.61879224 31.73330171 3.4375 29.875 C-0.15496798 26.77921794 -3.64501953 23.5992751 -7.0625 20.3125 C-7.56402588 19.8489209 -8.06555176 19.3853418 -8.58227539 18.90771484 C-9.97265625 17.55078125 -9.97265625 17.55078125 -12 15 C-11.99609375 12.83203125 -11.99609375 12.83203125 -11 11 C-9.04072937 9.2856382 -7.04119788 7.61594832 -5 6 C-4.67 5.34 -4.34 4.68 -4 4 C-3.34 4 -2.68 4 -2 4 C-1.34 2.68 -0.68 1.36 0 0 Z " fill="#F2F2ED" transform="translate(265,92)"/>
</svg>
